# xmcd
#
# Track frame offsets:
# 150
# 15545
# 31643
# 49456
# 65264
# 76606
# 95121
# 111259
# 126693
# 134587
# 148004
# 160053
# 174366
# 186663
# 205111
# 229987
#
# Disc length: 3308 seconds
#
#
# Revision: 0
# Processed by: cddbd v1.5.1PL2 Copyright (c) Steve Scherf et al.
# Submitted via: FreeRIP 2.945 
#
DISCID=e50cea10
DTITLE=Randall and Martinelli Tiguera and Tiguerinha - Randall and Martinelli Tiguera and Tiguerinha
DYEAR=1900
DGENRE=Sertanejo
TTITLE0=Recordacoes de um boiadeiro
TTITLE1=Promessa
TTITLE2=O berrante e a viola
TTITLE3=Cheiro de chao
TTITLE4=Minutos de amor
TTITLE5=Viola viva
TTITLE6=Poeta consagrado
TTITLE7=Voltei a ser matuto
TTITLE8=Besta tordilha
TTITLE9=Valente caminhoneiro
TTITLE10=Sonho de caboclo
TTITLE11=Ilusao de caboclo
TTITLE12=Eu sou cawboy
TTITLE13=Pedaco de chao
TTITLE14=Meu ultimo adeus
TTITLE15=O mineiro e o corretor
EXTD=
EXTT0=
EXTT1=
EXTT2=
EXTT3=
EXTT4=
EXTT5=
EXTT6=
EXTT7=
EXTT8=
EXTT9=
EXTT10=
EXTT11=
EXTT12=
EXTT13=
EXTT14=
EXTT15=
PLAYORDER=
